<?xml version="1.0" standalone="no"?>
<!DOCTYPE svg PUBLIC "-//W3C//DTD SVG 1.1//EN" "http://www.w3.org/Graphics/SVG/1.1/DTD/svg11.dtd" >
<!--
2013-9-30: Created.
-->
<svg>
<metadata>
Created by iconfont
</metadata>
<defs>

<font id="iconfont" horiz-adv-x="1024" >
  <font-face
    font-family="iconfont"
    font-weight="500"
    font-stretch="normal"
    units-per-em="1024"
    ascent="896"
    descent="-128"
  />
    <missing-glyph />
    
    <glyph glyph-name="diannao" unicode="&#58917;" d="M581.12 142.72v-137.6h206.72a34.56 34.56 0 1 0 0-69.12H305.28a34.56 34.56 0 1 0 0 69.12H512v137.6H201.6A137.6 137.6 0 0 0 64 280.32V694.4A137.6 137.6 0 0 0 201.6 832h689.28a137.6 137.6 0 0 0 137.6-137.6v-414.08a137.6 137.6 0 0 0-137.6-137.6zM201.6 762.88a69.76 69.76 0 0 1-68.48-68.48v-414.08a69.76 69.76 0 0 1 69.12-69.12h688.64A69.76 69.76 0 0 1 960 280.32V694.4a69.76 69.76 0 0 1-69.12 69.12z"  horiz-adv-x="1028" />

    
    <glyph glyph-name="renwu1" unicode="&#59430;" d="M712.72 476.91L481.11 245.29 376.51 349.9c-13.29 13.29-34.85 13.29-48.14 0s-13.29-34.85 0-48.14L456.8 173.32c6.7-6.7 15.49-10 24.27-9.95 8.81-0.07 17.63 3.23 24.35 9.94l255.45 255.45c13.29 13.29 13.29 34.85 0 48.14s-34.85 13.3-48.15 0.01zM827.91 766.35H701.88v27.11c0 24.08-19.6 43.68-43.68 43.68H365.99c-24.08 0-43.66-19.6-43.66-43.68v-27.11H196.28c-40.91 0-74.19-33.28-74.19-74.19V4.8c0-40.91 33.28-74.19 74.19-74.19h631.63c40.91 0 74.19 33.28 74.19 74.19V692.16c0 40.91-33.28 74.19-74.19 74.19z m-441.84 7.04h252.07v-72.49H386.07v72.49zM838.36 4.8c0-5.76-4.69-10.45-10.45-10.45H196.28c-5.76 0-10.45 4.69-10.45 10.45V692.16c0 5.76 4.69 10.45 10.45 10.45h126.05v-21.78c0-24.08 19.59-43.68 43.66-43.68H658.2c24.08 0 43.68 19.6 43.68 43.68v21.78h126.04c5.76 0 10.45-4.69 10.45-10.45V4.8z"  horiz-adv-x="1024" />

    
    <glyph glyph-name="loudou" unicode="&#59070;" d="M812.525 801H207.472C175.732 801 150 775.271 150 743.533l0.012-1.151a57.463 57.463 0 0 1 11.911-33.893L404.1 393.784l0.001-276.645a80.452 80.452 0 0 1 42.561-70.969l106.78-57.013c21.28-11.362 47.742-3.323 59.105 17.954l0.52 1.006a43.671 43.671 0 0 1 4.629 19.566V395.007l240.438 313.56c19.313 25.187 14.55 61.26-10.64 80.571A57.476 57.476 0 0 1 812.524 801zM212.14 741.237h595.725l-249.94-325.96v-360.76l-83.108 44.373a20.688 20.688 0 0 0-10.945 18.25V414.114L212.14 741.237z"  horiz-adv-x="1024" />

    
    <glyph glyph-name="lianjie" unicode="&#59162;" d="M314.975 501.53c11.713 11.182 30.275 11.018 41.787-0.494 11.68-11.679 11.68-30.614 0-42.292L204.648 306.63l-1.894-1.926c-61.883-63.922-61.252-165.91 1.894-229.056 63.784-63.783 167.198-63.783 230.982 0l152.114 152.114 0.505 0.494c11.713 11.183 30.275 11.018 41.787-0.494 11.679-11.678 11.679-30.613 0-42.292L477.922 33.356l-2.63-2.588c-87.331-84.545-226.666-83.682-312.936 2.588-87.141 87.141-87.141 228.425 0 315.566L314.47 501.036z m356.738 42.498c11.512-11.512 11.677-30.074 0.494-41.788l-0.494-0.505-276.59-276.59c-11.678-11.678-30.613-11.678-42.292 0-11.512 11.512-11.676 30.074-0.493 41.788l0.493 0.505 276.59 276.59c11.679 11.678 30.614 11.678 42.292 0z m190.931 189.616c86.27-86.27 87.133-225.605 2.588-312.936l-2.588-2.63L710.53 265.964c-11.679-11.679-30.614-11.679-42.292 0-11.512 11.512-11.677 30.074-0.494 41.787l0.494 0.505L820.352 460.37c63.783 63.784 63.783 167.198 0 230.982-63.146 63.146-165.134 63.777-229.056 1.894l-1.926-1.894-152.114-152.114c-11.678-11.68-30.613-11.68-42.292 0-11.512 11.512-11.676 30.074-0.493 41.787l0.493 0.505 152.114 152.114c87.141 87.141 228.425 87.141 315.566 0z"  horiz-adv-x="1024" />

    
    <glyph glyph-name="shang" unicode="&#59017;" d="M236.458667 236.458667a21.333333 21.333333 0 0 0-2.432 27.221333l2.432 2.986667L507.562667 537.7280000000001l271.104-271.061333a21.333333 21.333333 0 0 0-27.221334-32.64l-2.98666599 2.432L507.562667 477.39733299 266.666667 236.45866701a21.333333 21.333333 0 0 0-27.221334-2.43200001l-2.986666 2.432z"  horiz-adv-x="1024" />

    
    <glyph glyph-name="you-01-01" unicode="&#58951;" d="M462 779.15a34.22 34.22 0 0 1 0-48.41l361.43-361.48L462 7.79a34.23 34.23 0 1 1 48.41-48.41l381.64 381.68a34.21 34.21 0 0 1 14.36 27.87v0.33 0.33A34.21 34.21 0 0 1 892 397.47L510.39 779.15a34.22 34.22 0 0 1-48.39 0zM195.84 779.15a34.22 34.22 0 0 1 0-48.41L557.3 369.26 195.84 7.79a34.23 34.23 0 1 1 48.41-48.41l381.67 381.68a34.21 34.21 0 0 1 14.36 27.87v0.33 0.33a34.21 34.21 0 0 1-14.36 27.87L244.25 779.15a34.22 34.22 0 0 1-48.41 0z"  horiz-adv-x="1024" />

    
    <glyph glyph-name="zuoshouqi" unicode="&#58885;" d="M176 382.3l392.73 395.44a32 32 0 0 1-45.41 45.1L108 404.7a32 32 0 0 1 0.16-45.25L523.48-53a32 32 0 1 1 45.1 45.41zM525.23 382.3L918 777.74a32 32 0 1 1-45.41 45.1L457.27 404.7a32 32 0 0 1 0.16-45.25L872.7-53a32 32 0 0 1 45.1 45.41z"  horiz-adv-x="1024" />

    
    <glyph glyph-name="shanchudefuben" unicode="&#59394;" d="M772 563c17.496 0 31.713-14.042 32-31.47V80c0-52.49-42.125-95.14-94.412-95.987L708-16H317c-52.49 0-95.14 42.125-95.987 94.412L221 80V531c0 17.673 14.327 32 32 32 17.496 0 31.713-14.042 31.996-31.47l0.004-0.53v-451c0-17.496 14.042-31.713 31.47-31.996l0.53-0.004h391c17.496 0 31.713 14.042 31.996 31.47L740 80V531c0 17.673 14.327 32 32 32z m-338-79c17.673 0 32-14.327 32-32v-236c0-17.673-14.327-32-32-32-17.673 0-32 14.327-32 32V452c0 17.673 14.327 32 32 32z m157 0c17.673 0 32-14.327 32-32v-236c0-17.673-14.327-32-32-32-17.673 0-32 14.327-32 32V452c0 17.673 14.327 32 32 32z m249 199c17.673 0 32-14.327 32-32 0-17.673-14.327-32-32-32H184c-17.673 0-32 14.327-32 32 0 17.673 14.327 32 32 32h656zM601 784c17.673 0 32-14.327 32-32 0-17.673-14.327-32-32-32H433c-17.673 0-32 14.327-32 32 0 17.673 14.327 32 32 32h168z"  horiz-adv-x="1024" />

    
    <glyph glyph-name="kehu" unicode="&#59022;" d="M925 175.3c-22.5 53.2-54.7 101-95.7 142s-88.8 73.2-142 95.7c-13.5 5.7-27.2 10.7-41.1 15 9.2 6.8 17.9 14.3 26.2 22.5 42.5 42.5 65.9 98.9 65.9 159 0 60.1-23.4 116.5-65.9 159s-98.9 65.9-159 65.9-116.5-23.4-159-65.9-65.9-98.9-65.9-159c0-60.1 23.4-116.5 65.9-159 8.2-8.2 17-15.7 26.2-22.5-13.9-4.3-27.6-9.3-41.1-15-53.2-22.5-101-54.7-142-95.7s-73.2-88.8-95.7-142c-23.3-55.1-35.1-113.6-35.1-173.9 0-36.6 29.8-66.5 66.5-66.5h760.6c36.6 0 66.5 29.8 66.5 66.5-0.2 60.3-12 118.8-35.3 173.9zM352.5 609.5c0 88.7 72.2 160.9 160.9 160.9s160.9-72.2 160.9-160.9-72.2-160.9-160.9-160.9-160.9 72.2-160.9 160.9z m541.1-610.6H133.1c-1.4 0-2.5 1.1-2.5 2.5 0 102.2 39.8 198.3 112.1 270.6s168.4 112.1 270.6 112.1S711.6 344.3 783.9 272 896 103.6 896 1.4c0.1-1.4-1-2.5-2.4-2.5zM543 254l21.1 47c4.2 9.3-2.7 19.9-12.9 19.8l-79.6-0.6c-10.4-0.1-17.1-11-12.5-20.3L482 254l-32.9-114.1c-1.9-6.7-0.1-14 4.8-19l44-44.6c7.2-7.3 19-7.4 26.3-0.2l44.7 44c5 4.9 6.9 12.1 5.1 18.9l-31 115z"  horiz-adv-x="1024" />

    
    <glyph glyph-name="tongxunlu" unicode="&#59055;" d="M108.1-32.8c-28.8 0-52.3 6.9-71.6 21.9-21.4 16.6-33.1 39-34.2 65.7v3.7c-0.5 15-1.1 31.5 4.3 48.6C17.3 142.4 41.3 168 77.1 184c51.8 23 103.6 45.4 155.4 67.8l5.3 2.1c6.4 2.7 13.4 5.3 20.3 8s14.4 5.3 21.4 8.5c7.5 3.2 9.6 4.8 9.6 5.3 0 0 1.1 3.2 0.5 15.5 0 5.3-2.1 11.2-6.4 17.6l-8.5 13.9c-14.4 23.5-29.9 47.5-43.8 72.1-15 26.2-25.6 53.9-32.6 83.9-5.3 23.5-6.9 48.6-3.7 77.4 3.2 33.1 11.8 65.2 24.6 94.5 27.8 62.5 67.3 104.7 120.7 129.8 68.4 31.5 137.8 26.2 202.4-16 34.7-23 62.5-53.9 83.9-95.6 24.6-47.5 36.3-98.3 34.7-151.7-1.1-35.8-13.9-67.8-24.6-91.3-13.4-28.8-29.9-55-45.9-79.1-2.7-4.3-5.9-8.5-8.5-12.8-6.4-9.6-12.8-18.7-17.6-28.3-5.9-10.7-8-21.4-6.4-31.5 10.1-8.5 23.5-13.9 36.3-18.7l67.3-25.6c37.4-14.4 74.8-28.3 112.2-43.3 41.1-16 67.8-46.5 77.4-87.1 4.8-20.3 4.8-41.7 0-61.4-5.9-25.1-23.5-57.2-74.2-68.4-9.1-2.1-18.7-2.7-30.4-2.7-0.1 0.3-638.4 0.3-638.4 0.3z m319.4 777.1c-20.8 0-42.2-5.3-63.6-15.5-40.1-18.7-70.5-52.3-92.4-102.6-10.7-24-17.1-50.2-19.8-78-2.1-23.5-1.6-42.7 2.7-60.4 5.9-24.6 15-48.1 26.7-70 12.8-23 27.2-46.5 41.1-68.9l8.5-13.9c8.5-13.9 12.8-27.2 13.4-41.1 1.1-35.8-8-52.3-37.9-66.2-7.5-3.7-15.5-6.4-23.5-9.6-5.9-2.1-11.8-4.3-17.1-6.9l-5.3-2.1c-49.7-21.9-99.3-43.8-149-66.2-21.4-9.6-34.7-24.6-41.1-44.9-2.7-9.1-2.1-20.3-1.6-32v-3.7c0.5-11.8 4.8-20.8 14.4-27.8 9.6-7.5 21.9-11.2 38.5-11.2v-24.6 24.6h612.1c8 0 13.9 0.5 18.7 1.6 25.6 5.9 32 19.2 34.2 30.4 2.7 12.9 2.7 26.1 0 39-5.3 24.6-19.8 41.1-44.9 50.7-35.8 14.4-71.6 28.3-106.8 42.2-21.9 8.5-43.3 16.6-65.2 25.1-15.5 6.4-33.6 13.9-49.7 27.2-8 6.4-13.4 16.6-15.5 26.2-4.3 21.4-0.5 43.3 10.7 64.1 5.9 11.2 12.8 21.9 19.8 32 2.7 3.7 5.3 8 8 11.8 14.4 22.4 29.4 46.5 40.6 71.6 8.5 19.2 18.7 44.3 19.2 71 1.1 43.8-8 86-27.8 125.5-17.1 33.1-37.9 57.7-64.1 75.3-27.8 18.2-55.5 27.3-83.3 27.3z m451.3-221.7h109.5c4.8 0 10.1-0.5 15-1.6 12.3-3.2 19.2-13.4 18.7-26.7-0.5-12.8-8-22.4-21.4-25.6-4.3-1.1-9.1-1.6-13.9-1.6H769.3c-5.9 0-11.2 0.5-16.6 2.1-12.8 4.3-18.7 13.9-17.6 28.3 0.5 11.8 9.1 20.8 21.4 23.5 4.3 1.1 9.1 1.1 13.4 1.1 35.7 0.5 72.1 0.5 108.9 0.5z m23-183.7c-28.3 0-56.6-0.5-85.5 0-6.9 0-14.4 1.6-20.8 4.3-10.7 4.8-15.5 16.6-12.8 29.9 2.1 10.7 11.2 18.7 23.5 20.8 3.7 0.5 7.5 0.5 11.2 0.5h170.4c5.3 0 11.2-0.5 16.6-2.1 11.2-3.2 17.6-13.4 17.1-26.2-0.5-12.8-6.9-22.4-18.7-25.6-4.8-1.6-10.1-2.1-15.5-2.1-28.4 0.5-56.7 0.5-85.5 0.5z m40.6-120.2H873c-9.1 0-17.6 1.6-24.6 7.5-9.1 8-10.7 18.2-6.9 29.4 3.7 11.8 12.8 16.6 23.5 18.2 3.2 0.5 6.9 0.5 10.7 0.5h111.6c5.9 0 12.3-1.1 18.2-2.7 10.7-3.7 16-12.3 16-24.6 0-11.8-5.3-21.4-15.5-25.1-5.9-2.1-12.3-3.2-18.2-3.2-18.7-0.5-26.2 0-45.4 0z"  horiz-adv-x="1024" />

    
    <glyph glyph-name="shezhi" unicode="&#58889;" d="M680.3 115c42.9 24.8 100.1 11.1 146.1-29.6 19.9-17.6 50.5-16.3 66.8 4.8 29.8 38.6 53.9 81.8 71 128.4 8.8 24-4.4 49.9-28.3 58.9-54.7 20.5-92.1 61.8-92.1 109.5 0 47.2 36.6 88.1 90.4 108.8 24 9.2 37 35.4 27.8 59.4-19 50-46.2 96-79.9 136.5-15.7 18.8-43.4 21.7-63 7-43.6-32.8-94.7-42.2-133.8-19.6-39.5 22.8-56.8 72.4-49.8 127.2 3.1 24.3-13.1 46.9-37.2 51.3-27.9 5.1-56.7 7.8-86.2 7.8-26.4 0-52.2-2.1-77.4-6.2-23.1-3.7-40-24.5-38.3-47.9 3.7-50.6-13.8-95.4-50.8-116.7-38.2-22.1-87.8-13.6-130.8 17.3-19.1 13.8-45.5 10.8-61.3-6.8-39.4-44-70.9-95.3-92-151.7-8.8-23.4 2.9-49.5 26-58.9 52-21.1 87.1-61.2 87.1-107.4 0-46.4-35.5-86.8-87.9-107.7-23.4-9.4-35.9-35-27.3-58.7 19-52.7 47-101.1 82.1-143.4 16.5-19.9 46.1-21.4 65.9-4.6 45.6 38.8 101.3 51.4 143.3 27.1 41.9-24.2 58.9-78.6 48.3-137.2-4.6-25.1 12.1-49.6 37.3-53.6 24.7-3.9 50-6 75.8-6 29.4 0 58.1 2.7 86 7.7 26.1 4.7 42 30.8 35.9 56.6-14.5 62.5 1.9 122 46.3 147.7z m-58 148.5C456.3 144.8 273.1 328 391.8 494c2.9 4 6.5 7.6 10.5 10.5C568.3 623.2 751.6 440 632.9 274c-2.9-4-6.5-7.7-10.6-10.5z"  horiz-adv-x="1024" />

    
    <glyph glyph-name="dengpao2x" unicode="&#58953;" d="M528.516129 417.032258m-297.290323 0a297.290323 297.290323 0 1 1 594.580646 0 297.290323 297.290323 0 1 1-594.580646 0ZM528.516129 94.967742C350.141935 94.967742 206.451613 238.658065 206.451613 417.032258S350.141935 739.096774 528.516129 739.096774 850.580645 595.406452 850.580645 417.032258 706.890323 94.967742 528.516129 94.967742z m0 594.580645c-150.296774 0-272.516129-122.219355-272.516129-272.516129S378.219355 144.516129 528.516129 144.516129 801.032258 266.735484 801.032258 417.032258 678.812903 689.548387 528.516129 689.548387zM512 263.432258l-29.729032 13.212903 102.4 224.619355-110.658065 24.774194-49.548387-69.367742 94.141936-44.593549-14.864517-28.077419-110.658064 52.851613-4.954839 23.122581 66.064516 92.490322 16.516129 6.606452 138.735484-31.380645 11.561291-21.470968zM495.483871 891.045161h49.548387v-95.793548h-49.548387zM125.588645 694.949161l35.03071 35.047226 67.749161-67.732645-35.047226-35.047226zM801.296516 661.751742l67.749161 67.732645 35.014194-35.03071-67.716129-67.732645zM396.387097 136.258065h247.741935c18.167742 0 33.032258-14.864516 33.032258-33.032259v-24.774193c0-31.380645-26.425806-57.806452-57.806451-57.806452h-198.193549c-31.380645 0-57.806452 26.425806-57.806451 57.806452V103.225806c0 18.167742 14.864516 33.032258 33.032258 33.032259zM619.354839-4.129032h-198.193549c-46.245161 0-82.580645 36.335484-82.580645 82.580645V103.225806c0 31.380645 26.425806 57.806452 57.806452 57.806452h247.741935c31.380645 0 57.806452-26.425806 57.806452-57.806452v-24.774193c0-46.245161-36.335484-82.580645-82.580645-82.580645z m-222.967742 115.612903c-4.954839 0-8.258065-3.303226-8.258065-8.258065v-24.774193c0-18.167742 14.864516-33.032258 33.032258-33.032258h198.193549c18.167742 0 33.032258 14.864516 33.032258 33.032258V103.225806c0 4.954839-3.303226 8.258065-8.258065 8.258065H396.387097zM396.387097 20.645161h247.741935c18.167742 0 33.032258-14.864516 33.032258-33.032258v-24.774193c0-31.380645-26.425806-57.806452-57.806451-57.806452h-198.193549c-31.380645 0-57.806452 26.425806-57.806451 57.806452V-12.387097c0 18.167742 14.864516 33.032258 33.032258 33.032258zM619.354839-119.741935h-198.193549c-46.245161 0-82.580645 36.335484-82.580645 82.580645V-12.387097c0 31.380645 26.425806 57.806452 57.806452 57.806452h247.741935c31.380645 0 57.806452-26.425806 57.806452-57.806452v-24.774193c0-46.245161-36.335484-82.580645-82.580645-82.580645z m-222.967742 115.612903c-4.954839 0-8.258065-3.303226-8.258065-8.258065v-24.774193c0-18.167742 14.864516-33.032258 33.032258-33.032258h198.193549c18.167742 0 33.032258 14.864516 33.032258 33.032258V-12.387097c0 4.954839-3.303226 8.258065-8.258065 8.258065H396.387097z"  horiz-adv-x="1024" />

    
    <glyph glyph-name="xiangmujiagoushezhi" unicode="&#58935;" d="M874.951111 298.666667H782.222222v135.964444a28.444444 28.444444 0 0 1-2.844444 11.946667 28.444444 28.444444 0 0 1-27.022222 21.333333H483.555556V583.111111h92.728888a35.555556 35.555556 0 0 1 35.271112 35.271111V860.728889A35.555556 35.555556 0 0 1 576.284444 896h-242.346666a35.555556 35.555556 0 0 1-35.271111-35.271111v-242.346667A35.555556 35.555556 0 0 1 333.937778 583.111111H426.666667v-115.2H157.297778a28.444444 28.444444 0 0 1-28.444445-28.444444 28.444444 28.444444 0 0 1 0-4.835556V298.666667H35.271111A35.555556 35.555556 0 0 1 0 263.395556v-242.346667A35.555556 35.555556 0 0 1 35.271111-14.222222h242.346667A35.555556 35.555556 0 0 1 312.888889 21.048889v242.346667A35.555556 35.555556 0 0 1 277.617778 298.666667H184.888889v112.355555h540.444444V298.666667h-92.728889A35.555556 35.555556 0 0 1 597.333333 263.395556v-242.346667A35.555556 35.555556 0 0 1 632.604444-14.222222h242.346667A35.555556 35.555556 0 0 1 910.222222 21.048889v242.346667A35.555556 35.555556 0 0 1 874.951111 298.666667zM355.555556 839.111111h199.111111v-199.111111h-199.111111zM256 42.666667H56.888889v199.111111h199.111111z m597.333333 0h-199.111111v199.111111h199.111111z"  horiz-adv-x="1152" />

    
    <glyph glyph-name="zuzhijiagou" unicode="&#59141;" d="M898.925714 301.83619h-113.371428v19.017143a84.845714 84.845714 0 0 1-84.114286 84.601905H536.380952v60.708572h100.205715a59.977143 59.977143 0 0 1 59.977143 59.977142v243.809524a59.977143 59.977143 0 0 1-59.977143 59.733334H390.095238a61.68381 61.68381 0 0 1-22.918095-4.388572 58.758095 58.758095 0 0 1-19.260953-13.165714 61.44 61.44 0 0 1-13.165714-19.260953 61.68381 61.68381 0 0 1-4.388571-22.918095v-243.809524a59.977143 59.977143 0 0 1 4.388571-22.918095 62.659048 62.659048 0 0 1 13.165714-19.504762 54.613333 54.613333 0 0 1 19.260953-12.921905 57.539048 57.539048 0 0 1 22.918095-4.63238h97.52381v-60.708572h-165.790477a92.40381 92.40381 0 0 1-29.257142-4.144762 91.428571 91.428571 0 0 1-32.670477-20.48 84.358095 84.358095 0 0 1-20.48-32.914286 117.51619 117.51619 0 0 1-4.388571-40.228571v-4.144762H125.074286a57.782857 57.782857 0 0 1-24.380953-4.632381 59.489524 59.489524 0 0 1-19.260952-12.921905 62.659048 62.659048 0 0 1-13.165714-19.504761 61.68381 61.68381 0 0 1-4.388572-22.918096v-245.028571a61.68381 61.68381 0 0 1 4.388572-22.918095 62.659048 62.659048 0 0 1 13.165714-19.504762 61.927619 61.927619 0 0 1 19.504762-12.921905 55.588571 55.588571 0 0 1 22.918095-4.388571h246.247619a59.977143 59.977143 0 0 1 59.733333 59.733333v243.809524a59.977143 59.977143 0 0 1-59.733333 59.977143H282.819048v21.455238 2.681904c0 2.438095 1.219048 4.87619 2.194285 7.314286a11.946667 11.946667 0 0 0 0 1.706667 41.691429 41.691429 0 0 0 3.169524 5.607619 24.380952 24.380952 0 0 1 2.194286 3.169524l5.12 5.12h1.706667a41.691429 41.691429 0 0 0 5.607619 3.169523l3.169523 1.219048 7.314286 1.950476H707.047619l6.582857-1.706666 3.657143-1.462858 5.607619-3.169523h1.462857l4.388572-4.632381 1.706666-2.681905a31.207619 31.207619 0 0 0 3.657143-6.095238v-2.681905a65.340952 65.340952 0 0 0 1.706667-6.582857v-2.681905a41.20381 41.20381 0 0 1 0-5.607619v-18.285714h-81.676191a59.977143 59.977143 0 0 1-59.977142-59.977143v-243.321905a59.733333 59.733333 0 0 1 17.554285-42.179047 58.758095 58.758095 0 0 1 42.422857-17.554286h243.809524a62.171429 62.171429 0 0 1 24.380953 4.388571 68.510476 68.510476 0 0 1 19.260952 12.921905 62.659048 62.659048 0 0 1 13.165714 19.504762 61.68381 61.68381 0 0 1 4.388572 22.918095V241.859048a59.977143 59.977143 0 0 1-4.388572 22.918095 62.659048 62.659048 0 0 1-13.165714 19.504762 58.026667 58.026667 0 0 1-19.504762 12.921905 55.832381 55.832381 0 0 1-23.161905 4.63238z"  horiz-adv-x="1024" />

    
    <glyph glyph-name="jiaoyin" unicode="&#58880;" d="M355.064966 737.093731c0-87.81145-71.144689-158.954184-158.959855-158.954184-87.76823 0-158.914874 71.143711-158.914874 158.954184 0 87.764514 71.146645 158.906269 158.914874 158.906269C283.920179 896 355.064966 824.858244 355.064966 737.093731zM569.619936 816.522908c0-43.903818-35.572882-79.476114-79.480417-79.476114s-79.479439 35.571318-79.479439 79.476114c0 43.905774 35.571905 79.477092 79.479439 79.477092S569.619936 860.428682 569.619936 816.522908zM800.050885 796.689106c0-43.905774-35.571905-79.477092-79.479439-79.477092s-79.480417 35.571318-79.480417 79.477092 35.572882 79.477092 79.480417 79.477092C764.479078 876.167078 800.050885 840.594783 800.050885 796.689106zM986.808884 693.373649c0-43.905774-35.572882-79.477092-79.480417-79.477092-43.907534 0-79.479439 35.571318-79.479439 79.477092s35.571905 79.477092 79.479439 79.477092C951.235024 772.850741 986.808884 737.279325 986.808884 693.373649zM284.478234 488.745065c0 0 50.658275 140.050605 244.353489 163.88897 0 0 299.017305 20.858875 350.513983-273.953799 25.142907-144.055071 14.667168-456.095496-216.417567-503.585458-55.780807-11.45456-217.534558 2.79282-196.674802 148.802209 7.356515 51.635238 55.780807 135.674754 0 208.585233C427.514294 283.139224 233.81996 298.038337 284.478234 488.745065"  horiz-adv-x="1024" />

    
    <glyph glyph-name="qian" unicode="&#58884;" d="M512 881.991c-278.418 0-504.168-225.75-504.219-504.219 0-278.567 225.75-504.269 504.219-504.269 278.517 0 504.269 225.75 504.269 504.269 0 278.468-225.7 504.219-504.269 504.219zM734.996 384.338c1.704-8.067 2.556-17.238 2.556-27.561 0-12.629-0.852-23.252-2.556-31.871h-165.216v-75.769h165.216c1.704-8.018 2.556-17.189 2.556-27.512 0-12.679-0.852-23.252-2.556-31.871h-165.216v-135.1c-6.966-1.103-14.081-2.005-21.548-2.606-7.466-0.601-14.982-0.902-22.399-0.902-7.466 0-14.883 0.3-22.349 0.902-7.417 0.601-14.633 1.452-21.548 2.606v135.1h-158.351c-2.306 6.916-3.457 16.636-3.457 29.265 0 5.212 0.3 10.323 0.852 15.535 0.601 5.162 1.452 10.022 2.606 14.583h158.351v75.769h-158.351c-2.306 6.916-3.457 16.636-3.457 29.265 0 5.162 0.3 10.323 0.852 15.535 0.601 5.162 1.452 10.022 2.606 14.633h123.925l-158.351 278.818c7.466 1.152 15.635 2.005 24.505 2.556 8.969 0.601 17.439 0.902 25.457 0.902 8.018 0 16.335-0.3 24.956-0.852s16.335-1.404 23.252-2.556l141.113-259.927 138.607 259.927c7.417 1.152 15.033 2.005 22.799 2.556 7.667 0.55 15.635 0.852 23.653 0.852s16.035-0.3 24.053-0.852c8.067-0.55 15.535-1.404 22.399-2.556l-155.746-278.818h130.79zM496.014 189.805z"  horiz-adv-x="1024" />

    
    <glyph glyph-name="ren3" unicode="&#58919;" d="M512-359.489906M499.719368 390.959025c48.099141 31.417949 79.926444 85.759744 79.926444 147.469918 0 97.01699-79.005397 176.022387-176.022387 176.022387-97.01699 0-176.022387-79.005397-176.022387-176.022387 0-61.607835 31.827304-115.94963 79.926444-147.469918-44.312612-14.736758-84.941035-39.605037-118.91745-73.581451-57.411953-57.411953-89.034579-133.756546-89.034579-214.911053 0-12.485309 10.029182-22.514491 22.514491-22.514491s22.514491 10.029182 22.514491 22.514491c0 142.762343 116.154307 258.91665 258.91665 258.91665s258.91665-116.154307 258.91665-258.91665c0-12.485309 10.029182-22.514491 22.514491-22.514491s22.514491 10.029182 22.514491 22.514491c0 81.154507-31.622626 157.499101-89.034579 214.911053C584.660404 351.251649 544.031981 376.222267 499.719368 390.959025zM272.630022 538.326604c0 72.251049 58.742355 130.993404 130.993404 130.993404 72.251049 0 130.993404-58.742355 130.993404-130.993404s-58.742355-130.993404-130.993404-130.993404C331.474715 407.3332 272.630022 466.075555 272.630022 538.326604zM828.942634 302.436138c-34.692784 51.06696-84.019988 90.160304-141.227264 112.367779 25.379972 37.762942 38.888667 82.280232 38.479312 128.230262-0.409354 55.876874-21.286428 109.39996-58.640016 150.744753-8.391765 9.210474-22.61683 9.926844-31.827304 1.535079-9.210474-8.391765-9.926844-22.61683-1.535079-31.827304 62.528883-68.976214 62.938237-173.56626 0.921047-243.258845-1.43274-1.637418-2.660804-3.479512-3.479512-5.321607-1.125725-1.739756-1.944433-3.684189-2.558465-5.8333-3.274835-11.973616 3.888867-24.356586 15.862483-27.631421C768.665201 348.28383 848.591645 231.822506 835.185289 104.717969c-1.330402-12.38297 7.675395-23.435539 20.058365-24.76594 0.818709-0.102339 1.637418-0.102339 2.353788-0.102339 11.359584 0 21.18409 8.596442 22.412153 20.160704C887.480312 171.135719 869.36638 243.079752 828.942634 302.436138z"  horiz-adv-x="1024" />

    
    <glyph glyph-name="sousuo" unicode="&#59012;" d="M103.355 203.449l324.675 0c-34.137 24.771-64.03 54.772-88.375 88.972l-236.304 0c-22.82 0-41.317-18.126-41.317-40.631l0-7.541c0-22.5 18.495-40.801 41.317-40.801M831.502 192.561c-7.753 20.078-30.923 30.345-51.712 22.759l-9.753-3.555c-20.959-7.312-31.542-29.679-23.745-49.568l70.329-181.652c7.821-20.014 30.9-30.212 51.684-22.736l9.813 3.537c20.979 7.312 31.567 29.744 23.745 49.651l-70.377 181.571zM663.154 55.179l-559.798-0.042c-22.82 0-41.317-18.173-41.317-40.65l0-7.541c0-22.522 18.495-40.845 41.317-40.845l559.798 0c22.799 0 41.271 18.235 41.271 40.738l0 7.63c0.042 22.479-18.451 40.719-41.271 40.719M357.978 464.69c4.994-30.042 14.576-59.939 29.358-88.506 16.135-31.113 37.267-58.141 61.633-80.876 32.937-30.817 71.94-53.828 114.134-67.46 74.426-24.153 158.064-20.078 233.217 17.766 149.426 75.474 208.636 256.275 132.348 403.86-65.164 125.578-207.373 186.305-340.533 155.082-23.274-5.423-46.245-13.351-68.49-24.561-30.646-15.47-57.238-35.484-79.909-58.611-46.332-47.251-75.411-107.874-83.425-171.948-3.515-27.921-2.98-56.426 1.67-84.753M657.922 740.035c127.227 0 230.322-101.786 230.322-227.366 0-125.536-103.118-227.299-230.322-227.299-127.162 0-230.237 101.746-230.237 227.299 0.022 125.554 103.094 227.366 230.237 227.366M106.335 536.673c-24.475 0-44.271-19.629-44.271-43.695l0-8.228c0-24.129 19.822-43.629 44.271-43.629l169.699 0c-4.434 23.207-6.986 47.103-6.986 71.596 0 8.038 0.685 15.964 1.242 23.957l-163.953 0zM103.355 699.707l215.087 0c18.707 33.023 42.213 62.961 69.559 89.038l-284.642 0c-22.82 0-41.317-18.126-41.317-40.631l0-7.587c0-22.522 18.495-40.82 41.317-40.82z"  horiz-adv-x="1024" />

    
    <glyph glyph-name="paixingbang" unicode="&#59077;" d="M315.597609 1.780289c-62.13867 0-124.393261 0-188.573147 0 0 126.355131 0 252.968887 0 382.249435 63.490354 0 125.046818 0 188.573147 0C315.597609 256.581933 315.597609 130.025938 315.597609 1.780289zM603.685685 2.232982c-60.901509 0-122.853905 0-186.300688 0 0 254.759673 0 508.683912 0 766.051617 62.799822 0 123.42252 0 186.300688 0C603.685685 513.576891 603.685685 258.975311 603.685685 2.232982zM895.189246 1.507474c-62.46245 0-124.032506 0-187.932981 0 0 174.161518 0 348.696784 0 525.524295 61.721953 0 123.860622 0 187.932981 0C895.189246 352.129752 895.189246 177.537725 895.189246 1.507474z"  horiz-adv-x="1024" />

    
    <glyph glyph-name="xia" unicode="&#58911;" d="M746.134 523.502c-0.008 0-0.018 0-0.027 0-5.579 0-10.635-2.239-14.319-5.867l-203.027-199.289c-9.104-8.936-23.895-8.914-32.971 0.050l-201.688 199.198c-8.048 7.948-21.013 7.867-28.96-0.18-7.947-8.046-7.867-21.011 0.179-28.959l201.688-199.198c12.116-11.966 28.164-18.569 45.192-18.596h0.102c16.99 0 33.019 6.552 45.147 18.457l203.028 199.293c8.071 7.922 8.192 20.887 0.269 28.958-3.709 3.786-8.875 6.133-14.589 6.133-0.009 0-0.018-0-0.027-0z"  horiz-adv-x="1024" />

    
    <glyph glyph-name="achieve" unicode="&#59114;" d="M783.6 418.9c-10 0-18 8.1-18 18v87l-87.3-14.5c-9.9-1.6-19.1 5-20.8 14.8-1.6 9.8 5 19.1 14.8 20.8l108.3 18c5.3 0.9 10.6-0.6 14.6-4 4.1-3.4 6.4-8.5 6.4-13.8v-108.3c0.1-10-8-18-18-18zM116 184.3c-4.4 0-8.8 1.6-12.3 4.9-7.3 6.8-7.7 18.2-0.9 25.5l252.6 270.6c3.5 3.8 8.4 6 13.7 5.7 5.2-0.1 10-2.5 13.4-6.5l166.4-199.7 220.7 271.7c6.3 7.7 17.7 8.9 25.4 2.6 7.7-6.3 8.9-17.6 2.6-25.4l-234.5-288.6c-3.4-4.2-8.5-6.6-13.9-6.7h-0.1c-5.4 0-10.4 2.4-13.9 6.5l-167.3 200.8-238.7-255.7c-3.5-3.8-8.3-5.7-13.2-5.7zM837.8-32.2h-649.6c-49.7 0-90.2 40.5-90.2 90.2v144.3c0 10 8.1 18 18 18s18-8.1 18-18v-144.3c0-29.8 24.3-54.1 54.1-54.1h649.6c29.8 0 54.1 24.3 54.1 54.1v649.6c0 29.8-24.3 54.1-54.1 54.1h-649.5c-29.8 0-54.1-24.3-54.1-54.1v-356.4c0-10-8.1-18-18-18s-18 8.1-18 18v356.4c0 49.7 40.5 90.2 90.2 90.2h649.6c49.7 0 90.2-40.5 90.2-90.2v-649.6c-0.1-49.7-40.6-90.2-90.3-90.2z"  horiz-adv-x="1024" />

    
    <glyph glyph-name="banben" unicode="&#58988;" d="M757.52448 436.92032a15.36 15.36 0 0 0-15.36-15.36h-460.3392a15.36 15.36 0 0 0-15.36 15.36V769.40288a15.36 15.36 0 0 0 15.36 15.36h460.3392a15.36 15.36 0 0 0 15.36-15.36v-332.48256zM709.08928 736.32768v-266.33216h-394.1888V736.32768h394.1888m33.0752 48.4352h-460.3392a15.36 15.36 0 0 1-15.36-15.36v-332.48256a15.36 15.36 0 0 1 15.36-15.36h460.3392a15.36 15.36 0 0 1 15.36 15.36V769.40288a15.36 15.36 0 0 1-15.36 15.36zM601.17504 681.7536h48.44032v-191.08864h-48.44032zM801.408-17.71008H222.6432c-64.16896 0-116.3776 52.20864-116.3776 116.3776V669.33248c0 64.16896 52.20864 116.3776 116.3776 116.3776h578.77504c64.16896 0 116.3776-52.20864 116.3776-116.3776v-570.66496c-0.01024-64.17408-52.21888-116.3776-116.38784-116.3776zM222.6432 737.27488c-37.46304 0-67.9424-30.47936-67.9424-67.9424v-570.66496c0-37.46304 30.47936-67.9424 67.9424-67.9424h578.76992c37.46304 0 67.9424 30.47424 67.9424 67.9424l0.01024 570.66496c0 37.46304-30.47424 67.9424-67.9424 67.9424H222.6432z"  horiz-adv-x="1024" />

    
    <glyph glyph-name="icon--" unicode="&#59209;" d="M499.2 803.84l-409.6-230.4v-486.4c0-56.32 46.08-102.4 102.4-102.4h614.4c56.32 0 102.4 46.08 102.4 102.4v486.4l-409.6 230.4z m-358.4-716.8V488.96l232.96-184.32-230.4-230.4c-2.56 2.56-2.56 7.68-2.56 12.8z m40.96-48.64l235.52 235.52 84.48-56.32 84.48 56.32 235.52-235.52h-640z m675.84 48.64c0-5.12 0-10.24-2.56-15.36l-230.4 230.4 232.96 184.32v-399.36z m-358.4 189.44l-358.4 273.92 358.4 197.12 358.4-197.12-358.4-273.92z"  horiz-adv-x="1024" />

    
    <glyph glyph-name="paihangshuju" unicode="&#58995;" d="M204.8 71.4752a68.266667 68.266667 0 0 1 68.266667 68.266667V628.258133a68.266667 68.266667 0 0 1-136.533334 0v-488.533333a68.266667 68.266667 0 0 1 68.266667-68.2496zM409.6 71.4752a68.266667 68.266667 0 0 1 68.266667 68.266667V372.258133a68.266667 68.266667 0 0 1-136.533334 0v-232.533333a68.266667 68.266667 0 0 1 68.266667-68.2496zM614.4 71.4752a68.266667 68.266667 0 0 1 68.266667 68.266667V764.791467a68.266667 68.266667 0 0 1-136.533334 0v-625.066667a68.266667 68.266667 0 0 1 68.266667-68.2496zM819.2 71.4752a68.266667 68.266667 0 0 1 68.266667 68.266667V525.858133a68.266667 68.266667 0 0 1-136.533334 0v-386.133333a68.266667 68.266667 0 0 1 68.266667-68.2496zM989.866667 3.208533H34.133333a34.133333 34.133333 0 0 1 0-68.266666h955.733334a34.133333 34.133333 0 0 1 0 68.266666z"  horiz-adv-x="1024" />

    
    <glyph glyph-name="sousuo1" unicode="&#58898;" d="M1012.363636-86.109091l-200.145454 200.145455c167.563636 181.527273 165.236364 465.454545-13.963637 642.327272C619.054545 937.890909 323.490909 937.890909 139.636364 756.363636c-179.2-181.527273-179.2-477.090909 0-658.618181 90.763636-90.763636 209.454545-134.981818 330.472727-134.981819 109.381818 0 223.418182 41.890909 309.527273 121.018182l200.145454-200.145454c9.309091-9.309091 23.272727-9.309091 32.581818 0 9.309091 6.981818 9.309091 20.945455 0 30.254545zM768 130.327273c-162.909091-162.909091-430.545455-162.909091-593.454545 0s-162.909091 432.872727 0 593.454545c81.454545 81.454545 188.509091 121.018182 295.563636 121.018182S686.545455 805.236364 768 723.781818c160.581818-160.581818 160.581818-430.545455 0-593.454545z"  horiz-adv-x="1024" />

    
    <glyph glyph-name="mubiao" unicode="&#58888;" d="M502.922 105.331c-152.755 1.391-276.788 125.42-278.177 278.177-0.661 72.618 29.297 142.754 79.451 194.66 52.395 54.221 124.439 82.84 198.726 83.516 71.011 0.646 71.074 110.824 0 110.177-212.832-1.937-386.417-175.518-388.354-388.353-1.937-212.854 178.438-386.443 388.354-388.354 71.073-0.644 71.011 109.531 0 110.177zM521.098 661.684c152.756-1.39 276.79-125.42 278.18-278.176 0.662-72.62-29.297-142.755-79.453-194.658-52.394-54.224-124.439-82.843-198.727-83.519-71.012-0.646-71.074-110.821 0-110.177 212.834 1.937 386.42 175.52 388.357 388.354 1.936 212.856-178.442 386.441-388.357 388.353-71.074 0.647-71.012-109.532 0-110.177zM410.657 385.437c-0.041 57.184 42.743 103.075 99.009 105.283 57.153 2.242 103.141-44.402 105.284-99.008 1.178-29.998 24.167-55.089 55.088-55.089 29.14 0 56.268 25.066 55.089 55.089-4.579 116.64-97.827 209.263-215.461 209.184-116.738-0.078-209.264-101.213-209.185-215.459 0.05-71.046 110.226-71.052 110.176 0zM613.412 379.979c-1.083-56.13-46.052-101.095-102.18-102.176-56.155-1.084-101.125 47.673-102.175 102.176-1.369 70.956-111.547 71.089-110.177 0 2.258-117.153 95.202-210.093 212.352-212.353 117.147-2.259 210.164 98.607 212.356 212.353 1.371 71.09-108.807 70.956-110.176 0zM1014.707 383.508c0-22.698-19.031-41.099-42.513-41.099H792.696c-23.479 0-42.514 18.4-42.514 41.099 0 22.696 19.035 41.095 42.514 41.095h179.499c23.481 0 42.512-18.399 42.512-41.095zM273.579 381.692c0-22.696-19.033-41.095-42.517-41.095H51.563c-23.478 0-42.511 18.398-42.511 41.095 0 22.698 19.033 41.099 42.511 41.099h179.499c23.484 0 42.517-18.401 42.517-41.099zM510.838 623.238c-22.693 0-41.094 19.029-41.094 42.513V845.25c0 23.477 18.401 42.51 41.094 42.51 22.7 0 41.1-19.033 41.1-42.51v-179.499c0-23.483-18.4-42.515-41.1-42.513zM510.838-123.117c-22.693 0-41.094 19.031-41.094 42.513v179.5c0 23.477 18.401 42.513 41.094 42.513 22.7 0 41.1-19.036 41.1-42.513v-179.501c0-23.481-18.4-42.512-41.1-42.512z"  horiz-adv-x="1024" />

    
    <glyph glyph-name="youduiqicopy" unicode="&#59361;" d="M849.454545 686.545455h-698.181818a34.909091 34.909091 0 0 0 0 69.818181h698.181818a34.909091 34.909091 0 0 0 0-69.818181z m11.636364-674.909091H162.909091a34.909091 34.909091 0 0 0 0 69.818181h698.181818a34.909091 34.909091 0 0 0 0-69.818181zM587.636364 523.636364H157.090909a34.909091 34.909091 0 0 0 0 69.818181h430.545455a34.909091 34.909091 0 0 0 0-69.818181z m-8.727273-174.545455H151.272727a34.909091 34.909091 0 0 0 0 69.818182h427.636364a34.909091 34.909091 0 0 0 0-69.818182z m0-174.545454H154.181818a34.909091 34.909091 0 0 0 0 69.818181h424.727273a34.909091 34.909091 0 0 0 0-69.818181zM872.727273 202.984727L691.712 384l181.015273 181.038545v-362.053818z"  horiz-adv-x="1024" />

    
    <glyph glyph-name="Group-" unicode="&#59048;" d="M512 117.44l70.4 93.76a32 32 0 0 0 25.6 12.8h224a32 32 0 0 1 32 32V640a32 32 0 0 1-32 32H192a32 32 0 0 1-32-32v-384a32 32 0 0 1 32-32h224a32 32 0 0 0 25.6-12.8zM192 160a96 96 0 0 0-96 96V640a96 96 0 0 0 96 96h640a96 96 0 0 0 96-96v-384a96 96 0 0 0-96-96h-208l-86.4-115.2a32 32 0 0 0-51.2 0L400 160zM320 480a32 32 0 0 0 0 64h384a32 32 0 0 0 0-64zM320 352a32 32 0 0 0 0 64h256a32 32 0 0 0 0-64z"  horiz-adv-x="1024" />

    
    <glyph glyph-name="rili" unicode="&#59125;" d="M204.8 633.6a19.2 19.2 0 0 1-19.2-19.2v-512c0-10.5984 8.6016-19.2 19.2-19.2h614.4a19.2 19.2 0 0 1 19.2 19.2v512A19.2 19.2 0 0 1 819.2 633.6H204.8z m0 64h614.4c45.9264 0 83.2-37.2736 83.2-83.2v-512c0-45.9264-37.2736-83.2-83.2-83.2H204.8A83.2 83.2 0 0 0 121.6 102.4v512c0 45.9264 37.2736 83.2 83.2 83.2zM364.8 665.6a32 32 0 1 0-64 0V742.4a32 32 0 1 0 64 0v-76.8zM723.2 665.6a32 32 0 1 0-64 0V742.4a32 32 0 1 0 64 0v-76.8zM204.8 480a19.2 19.2 0 0 1-19.2-19.2v-358.4c0-10.5984 8.6016-19.2 19.2-19.2h614.4a19.2 19.2 0 0 1 19.2 19.2v358.4A19.2 19.2 0 0 1 819.2 480H204.8z m0 64h614.4c45.9264 0 83.2-37.2736 83.2-83.2v-358.4c0-45.9264-37.2736-83.2-83.2-83.2H204.8A83.2 83.2 0 0 0 121.6 102.4v358.4c0 45.9264 37.2736 83.2 83.2 83.2zM307.2 332.8a25.6 25.6 0 0 0 0 51.2h102.4a25.6 25.6 0 0 0 0-51.2H307.2zM307.2 179.2a25.6 25.6 0 1 0 0 51.2h102.4a25.6 25.6 0 1 0 0-51.2H307.2zM614.4 332.8a25.6 25.6 0 0 0 0 51.2h102.4a25.6 25.6 0 1 0 0-51.2h-102.4zM614.4 179.2a25.6 25.6 0 1 0 0 51.2h102.4a25.6 25.6 0 1 0 0-51.2h-102.4z"  horiz-adv-x="1024" />

    
    <glyph glyph-name="project-o" unicode="&#58920;" d="M855.771429 742.4c-7.314286 7.314286-14.628571 21.942857-29.257143 29.257143-7.314286 7.314286-14.628571 21.942857-21.942857 29.257143-7.314286 14.628571-21.942857 21.942857-36.571429 21.942857H285.257143c-14.628571 0-29.257143 0-36.571429-7.314286-7.314286-7.314286-14.628571-7.314286-21.942857-14.628571l-21.942857-21.942857-36.571429-36.571429c-7.314286-14.628571-21.942857-29.257143-29.257142-43.885714h753.371428c-14.628571 14.628571-21.942857 29.257143-36.571428 43.885714z m7.314285-490.057143H160.914286c-29.257143 0-51.2-7.314286-65.828572-21.942857-14.628571-21.942857-21.942857-36.571429-21.942857-58.514286v-138.971428c0-29.257143 7.314286-51.2 29.257143-65.828572 14.628571-14.628571 36.571429-21.942857 58.514286-21.942857h694.857143c29.257143 0 51.2 7.314286 65.828571 21.942857 14.628571 14.628571 21.942857 36.571429 21.942857 58.514286v146.285714c0 21.942857-7.314286 43.885714-21.942857 58.514286-7.314286 14.628571-29.257143 21.942857-58.514286 21.942857zM585.142857 76.79999999999995c-7.314286-7.314286-7.314286-7.314286-14.628571-7.314286H460.8c-7.314286 0-14.628571 0-21.942857 7.314286 0 7.314286-7.314286 14.628571-7.314286 21.942857 0 7.314286 0 14.628571 7.314286 14.628572 7.314286 7.314286 7.314286 7.314286 21.942857 7.314285h102.4c7.314286 0 14.628571 0 14.628571-7.314285 7.314286-7.314286 7.314286-7.314286 7.314286-14.628572 7.314286-7.314286 0-14.628571 0-21.942857z m343.771429 519.314286c-14.628571 14.628571-36.571429 21.942857-65.828572 21.942857H160.914286c-29.257143 0-51.2-7.314286-65.828572-21.942857-14.628571-14.628571-21.942857-29.257143-21.942857-51.2v-146.285715c0-21.942857 7.314286-43.885714 21.942857-58.514285 14.628571-14.628571 36.571429-21.942857 65.828572-21.942857h702.171428c29.257143 0 51.2 7.314286 65.828572 21.942857 14.628571 14.628571 21.942857 36.571429 21.942857 58.514285v146.285715c0 21.942857-7.314286 36.571429-21.942857 51.2z m-365.714286-153.6H460.8c-7.314286 0-14.628571 0-14.628571 7.314285C438.857143 457.142857 438.857143 457.142857 431.542857 471.771429c0 7.314286 0 14.628571 7.314286 14.628571 7.314286 7.314286 7.314286 7.314286 21.942857 7.314286h102.4c7.314286 0 14.628571 0 14.628571-7.314286 7.314286 0 14.628571-7.314286 14.628572-14.628571-7.314286-21.942857-14.628571-29.257143-29.257143-29.257143z"  horiz-adv-x="1024" />

    
    <glyph glyph-name="gengduo" unicode="&#58927;" d="M417.185031 327.110943a37.925912 37.925912 0 0 0 37.925912-37.925912v-341.333207a37.925912 37.925912 0 0 0-37.925912-37.925912H75.851824a37.925912 37.925912 0 0 0-37.925912 37.925912V289.185031a37.925912 37.925912 0 0 0 37.925912 37.925912h341.333207m0 37.925911H75.851824a75.851824 75.851824 0 0 1-75.851824-75.851823v-341.333207a75.851824 75.851824 0 0 1 75.851824-75.851824h341.333207a75.851824 75.851824 0 0 1 75.851823 75.851824V289.185031a75.851824 75.851824 0 0 1-75.851823 75.851823zM948.147797 327.110943a37.925912 37.925912 0 0 0 37.925912-37.925912v-341.333207a37.925912 37.925912 0 0 0-37.925912-37.925912H606.81459a37.925912 37.925912 0 0 0-37.925912 37.925912V289.185031a37.925912 37.925912 0 0 0 37.925912 37.925912h341.333207m0 37.925911H606.81459a75.851824 75.851824 0 0 1-75.851824-75.851823v-341.333207a75.851824 75.851824 0 0 1 75.851824-75.851824h341.333207a75.851824 75.851824 0 0 1 75.851824 75.851824V289.185031a75.851824 75.851824 0 0 1-75.851824 75.851823zM417.185031 858.073709a37.925912 37.925912 0 0 0 37.925912-37.925912v-341.333207a37.925912 37.925912 0 0 0-37.925912-37.925912H75.851824a37.925912 37.925912 0 0 0-37.925912 37.925912V820.147797a37.925912 37.925912 0 0 0 37.925912 37.925912h341.333207m0 37.925912H75.851824a75.851824 75.851824 0 0 1-75.851824-75.851824v-341.333207a75.851824 75.851824 0 0 1 75.851824-75.851824h341.333207a75.851824 75.851824 0 0 1 75.851823 75.851824V820.147797a75.851824 75.851824 0 0 1-75.851823 75.851824zM777.481194 858.073709a20.859252 20.859252 0 0 0 14.791105-6.068146l187.354005-187.543634a21.048881 21.048881 0 0 0 0-29.771841l-187.354005-187.543634a20.859252 20.859252 0 0 0-29.582211 0l-187.354005 187.543634a21.048881 21.048881 0 0 0 0 29.771841l186.974746 187.354004A20.859252 20.859252 0 0 0 777.481194 858.073709m0 37.925912a58.595534 58.595534 0 0 1-41.718504-17.25629l-187.733263-187.733264a58.974793 58.974793 0 0 1 0-83.247377l187.354004-187.543634a58.785163 58.785163 0 0 1 83.247377 0l187.354005 187.543634a58.974793 58.974793 0 0 1 0 83.247377L818.820437 878.553701A58.595534 58.595534 0 0 1 777.481194 895.999621z"  horiz-adv-x="1024" />

    
    <glyph glyph-name="yinzhang" unicode="&#59029;" d="M875.5-32h-727c-28.4 0-51.5 23-51.5 51.5h830c0-28.5-23.1-51.5-51.5-51.5zM926.4 38.5H97.6V186.7c0 25 9.9 47 28.7 63.6 13.7 12.2 32.4 21.7 57 29.2l1 0.3L317 310.5c52.7 16.3 59.8 36.1 59.8 53.3v88.8c0 5.5-2.2 10.5-6.2 14.3-23.8 22.2-42.3 49.9-53.5 80.1-11.9 32.2-15.6 66.1-10.9 100.8 6.1 45 27.7 87.5 60.8 119.8 33 32.3 76.1 52.9 121.1 57.9 30.4 3.4 60.3 0.4 88.9-8.9 27.4-9 52.2-23.3 73.8-42.6 44.1-39.4 69.4-95.9 69.4-155 0-28.7-5.8-56.6-17.2-82.7-11-25.2-26.7-47.7-46.6-66.9-5.7-5.5-8.8-12.5-8.8-19.7v-85.8c0-16.4 4.7-35.5 60-53.3l133.1-30.8 1.5-0.5c19.3-6.7 41.2-15.6 57.5-30.1 18-16.1 27.1-37.1 27-62.4v-148.3z m-770.8 58h712.8v90.3c0 13.4-2.9 22.7-44.1 37.2L692 254.6l-1.1 0.4c-30.8 9.8-52.7 21.1-68.8 35.4-21.7 19.3-32.7 44-32.7 73.5v85.8c0 23.1 9.4 45 26.6 61.5 29.7 28.5 46 66.8 46 107.8 0 42.6-18.2 83.4-50 111.8-32.3 28.8-74 42-117.5 37.1-66.8-7.5-121.8-61.3-130.9-127.9-6.7-49.3 10.2-96.9 46.4-130.6 15.7-14.6 24.7-35.3 24.7-56.7v-88.8c0-29.5-11.2-54.4-33.4-74-16.4-14.5-38.7-26-68.4-35l-1-0.3-1-0.2-131.7-30.5c-43.6-13.5-43.6-29.4-43.6-37.1v-90.3z"  horiz-adv-x="1024" />

    
    <glyph glyph-name="cuo" unicode="&#58943;" d="M794.8 101.2c-14-14-36.9-14-50.9 0L229.2 615.9c-14 14-14 36.9 0 50.9s36.9 14 50.9 0L794.9 152c13.9-13.9 13.9-36.8-0.1-50.8zM794.8 666.8c14-14 14-36.9 0-50.9L280.1 101.2c-14-14-36.9-14-50.9 0s-14 36.9 0 50.9L744 666.9c13.9 13.9 36.8 13.9 50.8-0.1z"  horiz-adv-x="1024" />

    
    <glyph glyph-name="shouji" unicode="&#58913;" d="M759 832H267c-40.869 0-74-33.131-74-74v-748c0-40.869 33.131-74 74-74h492c40.869 0 74 33.131 74 74V758c0 40.869-33.131 74-74 74zM544 0h-64c-17.673 0-32 14.327-32 32s14.327 32 32 32h64c17.673 0 32-14.327 32-32s-14.327-32-32-32z m224 146c0-9.941-8.059-18-18-18H274c-9.941 0-18 8.059-18 18V750c0 9.941 8.059 18 18 18h476c9.941 0 18-8.059 18-18v-604z"  horiz-adv-x="1024" />

    
    <glyph glyph-name="tubiaozhizuo-" unicode="&#58887;" d="M511.96 129.73000000000002L67 638.27h890L511.96 129.73000000000002z"  horiz-adv-x="1024" />

    
    <glyph glyph-name="renwu" unicode="&#58914;" d="M342 618.7h344.2c16.4 0 26.6 14.3 26.6 26.6v82c0 16.4-12.3 26.6-26.6 26.6h-16.4c-16.4 0-26.6 14.3-26.6 26.6 0 28.7-22.5 51.2-51.2 51.2H440.3c-28.7 0-51.2-22.5-51.2-51.2 0-16.4-12.3-26.6-26.6-26.6h-18.4c-16.4 0-26.6-14.3-26.6-26.6v-82c-2.2-16.3 10.1-26.6 24.5-26.6z m174.1 164c32.8 0 55.3-26.6 55.3-57.4 0-36.9-26.6-57.4-55.3-57.4s-55.3 26.6-55.3 57.4 26.6 57.4 55.3 57.4zM807.1 741.7h-16.4c-16.4 0-28.7-10.2-28.7-26.6v-120.9c0-16.4-12.3-26.6-26.6-26.6l-442.6-4.1c-16.4 0-26.6 14.3-26.6 26.6V710.9c0 16.4-12.3 26.6-26.6 26.6h-16.5c-43 4.1-61.5-24.6-61.5-61.5v-668c0-30.7 28.7-71.7 67.6-71.7h565.5c32.8 0 67.6 36.9 67.6 71.7V680.2c2.2 30.7-20.4 61.5-55.2 61.5zM417.6 156.9H313.3c-10.2 0-18.4 8.2-18.4 18.4s8.2 18.4 18.4 18.4h104.3c10.2 0 18.4-8.2 18.4-18.4s-8.2-18.4-18.4-18.4z m110.8 131H313.3c-10.2 0-18.4 8.2-18.4 18.4s8.2 18.4 18.4 18.4h215.1c10.1 0 18.4-8.2 18.4-18.4s-8.2-18.4-18.4-18.4z m200.7 145c0-9.9-8-17.9-17.9-17.9H312.8c-9.9 0-17.9 8-17.9 17.9v0.9c0 9.9 8 17.9 17.9 17.9h398.4c9.9 0 17.9-8 17.9-17.9v-0.9z"  horiz-adv-x="1024" />

    
    <glyph glyph-name="lingdai" unicode="&#58903;" d="M461.341767 562.604651H573.55907a17.860465 17.860465 0 0 1 17.354418 13.633489l23.206698 95.255813A17.860465 17.860465 0 0 1 596.765767 693.581395H439.212651A17.860465 17.860465 0 0 1 421.804651 671.678512l22.13507-95.255814A17.860465 17.860465 0 0 1 461.335814 562.604651zM525.573953-71.549023l99.262512 194.119442a41.674419 41.674419 0 0 1 4.024558 25.695255L561.128186 562.604651H468.825302L401.086512 148.265674a41.674419 41.674419 0 0 1 4.024558-25.695255l99.256558-194.119442a11.906977 11.906977 0 0 1 21.206325 0zM523.906977 348.27907h72.549209l3.607814-23.813954H523.906977a5.953488 5.953488 0 0 0-5.953489 5.953489v11.906976a5.953488 5.953488 0 0 0 5.953489 5.953489z"  horiz-adv-x="1024" />

    
    <glyph glyph-name="renshu" unicode="&#58897;" d="M406.6 565.5m-176.6 0a176.6 176.6 0 1 1 353.2 0 176.6 176.6 0 1 1-353.2 0ZM491.2 378.9H352.4C191.7 378.9 61.5 248.70000000000005 61.5 88c0-48.5 39.4-87.9 87.9-87.9h528.2c38.1 0 69 30.9 69 69v54.4c0 141-114.4 255.4-255.4 255.4zM605.8 566.9c0-46.7-17-89.4-45.2-122.3-3.3-3.8-3.1-9.5 0.4-13.2 24.4-25.3 58.7-41 96.6-41 74.6 0 135 60.7 134.5 135.4-0.5 73-59.9 132.7-132.9 133.5-20.6 0.2-40.1-4.1-57.6-12.2-6.2-2.9-9.3-10-7-16.4 7.3-19.8 11.2-41.3 11.2-63.8zM681.8 368.5H643c-7.9 0-10.8-10.4-4-14.5 77.3-45.9 129.1-130.2 129.1-226.7v-56.1c0-15.1-4.7-29.1-12.8-40.7-3.6-5.1 0-12.2 6.3-12.2H854c35.2 0 63.8 28.6 63.8 63.8v50.2c0 130.5-105.7 236.2-236 236.2z"  horiz-adv-x="1024" />

    
    <glyph glyph-name="tuichu" unicode="&#58881;" d="M874.140686 339.496806H479.15707a33.412941 33.412941 0 0 0 0 66.825882h403.514579l-83.887809 85.025271a33.811052 33.811052 0 0 0 0 47.204665 32.872646 32.872646 0 0 0 46.635935 0l122.845876-124.552069a30.569286 30.569286 0 0 0 17.061927-9.099694 45.242544 45.242544 0 0 0 0-55.166898 30.569286 30.569286 0 0 0-17.061927-9.099695l-122.845876-124.552069a32.872646 32.872646 0 0 0-46.635935 0 33.811052 33.811052 0 0 0 0 47.204666zM775.465873 695.522355V806.993613a88.295473 88.295473 0 0 1-87.58456 89.006387H116.875482A88.352347 88.352347 0 0 1 29.006556 806.993613v-845.70286a88.352347 88.352347 0 0 1 87.868926-89.006388h571.005831a88.295473 88.295473 0 0 1 87.58456 89.006388v111.186892a32.84421 32.84421 0 1 1-65.68842 0v-89.006387a44.304138 44.304138 0 0 0-43.79228-44.361011H138.487256a43.70697 43.70697 0 0 0-43.507914 44.361011V784.813107a44.048209 44.048209 0 0 0 43.507914 44.361011H665.985173a44.105082 44.105082 0 0 0 43.79228-44.361011v-89.290752a32.84421 32.84421 0 1 1 65.68842 0z m0 0"  horiz-adv-x="1024" />

    
    <glyph glyph-name="renyuan" unicode="&#58905;" d="M500.5 350.8c-59.7 0-115.9 23.3-158.1 65.5s-65.5 98.4-65.5 158.1 23.3 115.9 65.5 158.1S440.8 798 500.5 798s115.9-23.3 158.1-65.5c42.2-42.2 65.5-98.4 65.5-158.1s-23.3-115.9-65.5-158.1c-42.3-42.2-98.4-65.5-158.1-65.5z m0 407.7c-101.5 0-184.1-82.6-184.1-184.1S399 390.3 500.5 390.3s184.1 82.6 184.1 184.1S602 758.5 500.5 758.5zM928-53.9H73l0.1 19.9c0.4 57.3 12 112.9 34.5 165.2 21.7 50.5 52.6 95.9 91.7 134.8 39.2 38.9 84.8 69.5 135.5 90.8 52.5 22.1 108.2 33.3 165.7 33.3 57.4 0 113.2-11.2 165.7-33.3 50.7-21.3 96.3-51.9 135.5-90.8s70.1-84.3 91.7-134.8c22.4-52.3 34-107.9 34.5-165.2l0.1-19.9z m-814.7 39.4h774.5c-11.9 203.1-181.6 365.1-387.2 365.1-205.8 0.1-375.5-162-387.3-365.1z"  horiz-adv-x="1024" />

    
    <glyph glyph-name="jia" unicode="&#59153;" d="M554.76 346.111v-341c0-26.51-21.491-48-48-48-26.51 0-48 21.49-48 48v341H114.172c-26.51 0-48 21.49-48 48s21.49 48 48 48H458.76v340c0 26.51 21.49 48 48 48s48-21.49 48-48v-340h346.414c26.51 0 48-21.49 48-48s-21.49-48-48-48H554.76z"  horiz-adv-x="1024" />

    
    <glyph glyph-name="xiangmu" unicode="&#58900;" d="M788.3 303.8l-47 323.8c-9.7 39.5-45.3 69.2-82.8 69.2H368.3c-37.1 0-72.7-29.7-83.1-70.8l-55.3-321.6C203 287.1 185 257 185 222.7v-75.2c0-53.7 43.7-97.4 97.4-97.4h452.2c53.7 0 97.4 43.7 97.4 97.4v75.2c0 33.9-17.4 63.7-43.7 81.1zM328.2 617c5 19.5 23.3 35.9 40.1 35.9h290.1c17 0 35.3-16.4 39.7-33.6l43.4-299.8c-2.3 0.2-4.6 0.7-7 0.7H599.3l-5.1-14.8c-12.6-36.3-47-60.7-85.6-60.7-38.7 0-73.2 24.4-85.8 60.7l-5.1 14.8H282.4c-1.8 0-3.5-0.4-5.2-0.5l51 297.3zM788 147.5c0-29.5-24-53.4-53.4-53.4H282.4c-29.4 0-53.4 24-53.4 53.4v75.2c0 29.5 24 53.4 53.4 53.4h105c22.3-45.7 69.2-75.4 121.2-75.4 51.8 0 98.6 29.7 121 75.4h105c29.4 0 53.4-24 53.4-53.4v-75.2zM414.3 524.1h188.5c10.4 0 18.8 8.4 18.8 18.8s-8.4 18.8-18.8 18.8H414.3c-10.4 0-18.8-8.4-18.8-18.8-0.1-10.3 8.4-18.8 18.8-18.8zM414.3 448.8h188.5c10.4 0 18.8 8.4 18.8 18.8s-8.4 18.8-18.8 18.8H414.3c-10.4 0-18.8-8.4-18.8-18.8s8.4-18.8 18.8-18.8zM414.3 373.4h188.5c10.4 0 18.8 8.4 18.8 18.8s-8.4 18.8-18.8 18.8H414.3c-10.4 0-18.8-8.4-18.8-18.8-0.1-10.3 8.4-18.8 18.8-18.8z"  horiz-adv-x="1024" />

    
    <glyph glyph-name="ziyuan" unicode="&#58901;" d="M1212.517684 454.602247V457.162135A438.837865 438.837865 0 0 1 360.075131 603.441423 365.698221 365.698221 0 0 1 371.411775-127.955019h804.536087a292.558577 292.558577 0 0 1 36.569822 582.557266z"  horiz-adv-x="1468" />

    
    <glyph glyph-name="zengchang-" unicode="&#58899;" d="M234.0864 37.888c-16.9984 0-30.72 13.7216-30.72 30.72v191.6928c0 16.9984 13.7216 30.72 30.72 30.72s30.72-13.7216 30.72-30.72v-191.6928c0-16.9984-13.7216-30.72-30.72-30.72zM430.08 37.888c-16.9984 0-30.72 13.7216-30.72 30.72V373.1456c0 16.9984 13.7216 30.72 30.72 30.72s30.72-13.7216 30.72-30.72V68.608c0-16.9984-13.7216-30.72-30.72-30.72zM626.0736 37.888c-16.9984 0-30.72 13.7216-30.72 30.72v191.6928c0 16.9984 13.7216 30.72 30.72 30.72s30.72-13.7216 30.72-30.72v-191.6928c0-16.9984-13.7216-30.72-30.72-30.72zM822.0672 37.888c-16.9984 0-30.72 13.7216-30.72 30.72V373.1456c0 16.9984 13.7216 30.72 30.72 30.72s30.72-13.7216 30.72-30.72V68.608c0-16.9984-13.9264-30.72-30.72-30.72zM186.368 396.9024c-7.9872 0-15.9744 3.072-22.1184 9.4208a30.72 30.72 0 0 0 0.6144 43.4176L392.8064 670.72a30.5152 30.5152 0 0 0 41.984 0.6144l180.0192-164.0448 184.5248 198.4512a30.72 30.72 0 0 0 45.056-41.7792L639.1808 443.1872c-11.4688-12.288-30.72-13.1072-43.2128-1.8432l-181.0432 165.0688-207.0528-200.9088c-6.144-5.7344-13.7216-8.6016-21.504-8.6016zM841.728 520.3968c-14.7456 0-26.624 11.8784-26.624 26.624V676.864h-117.9648c-14.7456 0-26.624 11.8784-26.624 26.624s11.8784 26.624 26.624 26.624h144.5888c14.7456 0 26.624-11.8784 26.624-26.624v-156.4672c0-14.7456-11.8784-26.624-26.624-26.624z"  horiz-adv-x="1024" />

    
    <glyph glyph-name="yibiao" unicode="&#58989;" d="M204.8 396.8m-38.4 0a38.4 38.4 0 1 1 76.8 0 38.4 38.4 0 1 1-76.8 0ZM294.4 620.8m-38.4 0a38.4 38.4 0 1 1 76.8 0 38.4 38.4 0 1 1-76.8 0ZM512 710.4m-38.4 0a38.4 38.4 0 1 1 76.8 0 38.4 38.4 0 1 1-76.8 0ZM729.6 620.8m-38.4 0a38.4 38.4 0 1 1 76.8 0 38.4 38.4 0 1 1-76.8 0ZM819.2 396.8m-38.4 0a38.4 38.4 0 1 1 76.8 0 38.4 38.4 0 1 1-76.8 0ZM665.6 486.4L544 339.2c-12.8-19.2-38.4-19.2-57.6-6.4-12.8 12.8-19.2 38.4-6.4 51.2l121.6 153.6c12.8 19.2 38.4 19.2 51.2 6.4 25.6-12.8 25.6-38.4 12.8-57.6zM512 819.2c236.8 0 435.2-198.4 435.2-435.2s-198.4-435.2-435.2-435.2S76.8 147.2 76.8 384 275.2 819.2 512 819.2M512 896C230.4 896 0 665.6 0 384s230.4-512 512-512 512 230.4 512 512-230.4 512-512 512z"  horiz-adv-x="1024" />

    
    <glyph glyph-name="icon_huabanfuben" unicode="&#58923;" d="M512 616.296296c-41.813333 0-75.851852 34.038519-75.851852 75.851852s34.038519 75.851852 75.851852 75.851852 75.851852-34.038519 75.851852-75.851852-34.038519-75.851852-75.851852-75.851852z m0 109.037037c-18.299259 0-33.185185-14.885926-33.185185-33.185185s14.885926-33.185185 33.185185-33.185185 33.185185 14.885926 33.185185 33.185185-14.885926 33.185185-33.185185 33.185185zM512 54.518519m-54.518519 0a54.518519 54.518519 0 1 1 109.037038 0 54.518519 54.518519 0 1 1-109.037038 0ZM832 88.177778h-640c-9.291852 0-17.540741 6.068148-20.385185 14.980741-2.74963 8.912593 0.474074 18.583704 8.154074 23.893333 0.379259 0.18963 36.124444 25.505185 71.49037 70.257778 46.459259 58.69037 70.352593 121.647407 71.111111 186.88V469.333333c0 50.441481 19.816296 98.038519 55.656297 133.973334 35.934815 35.934815 83.437037 55.656296 133.878518 55.656296s98.038519-19.816296 133.878519-55.656296c35.934815-35.934815 55.656296-83.437037 55.656296-133.973334v-85.238518c0.758519-65.327407 24.651852-128.18963 71.111111-186.88 35.365926-44.657778 71.111111-69.973333 71.49037-70.257778 7.585185-5.30963 10.903704-14.980741 8.154075-23.893333-2.654815-8.817778-10.903704-14.885926-20.195556-14.885926z m-582.826667 42.666666h525.748148c-10.808889 10.808889-22.755556 23.798519-34.702222 38.77926-23.134815 29.013333-41.623704 59.733333-54.992592 91.306666-16.971852 39.822222-25.78963 81.161481-26.168889 122.785186V469.333333c0 81.066667-65.896296 146.962963-146.962963 146.962963s-146.962963-65.896296-146.962963-146.962963v-85.617777c-0.474074-41.623704-9.291852-82.962963-26.168889-122.785186-13.463704-31.573333-31.952593-62.293333-54.992593-91.306666-12.041481-14.980741-23.988148-27.97037-34.797037-38.77926z"  horiz-adv-x="1024" />

    
    <glyph glyph-name="basesystemlogger" unicode="&#58940;" d="M941.568 732.16c-0.512 28.672-11.776 54.784-31.232 74.24-19.968 19.968-46.592 31.232-74.24 31.232l-648.192-1.024c-25.088 0-45.568-20.48-45.568-45.568v-103.424h-28.672c-16.896 0-30.72-13.824-30.72-30.72s13.824-30.72 30.72-30.72h28.672v-115.2h-28.672c-16.896 0-30.72-13.824-30.72-30.72s13.824-30.72 30.72-30.72h28.672v-115.2h-28.16c-16.896 0-30.72-13.824-30.72-30.72s13.824-30.72 30.72-30.72h28.16v-115.2h-28.16c-16.896 0-30.72-13.824-30.72-30.72s13.824-30.72 30.72-30.72h28.16v-119.808c0-25.088 20.48-45.568 45.568-45.568l648.704 0.512c57.856 0 104.96 47.104 104.96 104.96V732.16z m-174.592 44.032H834.56c25.6-0.512 45.056-19.456 45.056-44.032v-694.784c0-25.088-19.968-45.568-45.056-45.568h-67.584V776.192zM289.792 128c0 16.896-13.824 30.72-30.72 30.72h-56.32v114.688h56.32c16.896 0 30.72 13.824 30.72 30.72s-13.824 30.72-30.72 30.72h-56.32V450.048h56.32c16.896 0 30.72 13.824 30.72 30.72s-13.824 30.72-30.72 30.72H203.264V626.688h55.808c16.896 0 30.72 13.824 30.72 30.72s-13.824 30.72-30.72 30.72H203.776v71.68c0 8.704 7.168 15.872 15.872 15.872h486.4v-783.872H218.624c-9.216 0-16.384 7.168-16.384 16.384V97.27999999999997h56.832c16.896 0 30.72 13.824 30.72 30.72z"  horiz-adv-x="1024" />

    
    <glyph glyph-name="xiansuo" unicode="&#59009;" d="M545.706667 152.533333h-64V589.653333a85.333333 85.333333 0 0 1-85.333334 85.333334h-21.333333a85.333333 85.333333 0 0 1-85.333333-85.333334v-437.12h-64V589.653333a149.333333 149.333333 0 0 0 149.333333 149.333334h21.333333a149.333333 149.333333 0 0 0 149.333334-149.333334zM652.16 14.933333h-21.333333a149.333333 149.333333 0 0 0-149.333334 149.333334V601.6h64v-437.12a85.333333 85.333333 0 0 1 85.333334-85.333333h21.333333a85.333333 85.333333 0 0 1 85.333333 85.333333V601.6h64v-437.12a149.333333 149.333333 0 0 0-149.333333-149.546667zM257.706667 152.533333m-106.666667 0a106.666667 106.666667 0 1 1 213.333333 0 106.666667 106.666667 0 1 1-213.333333 0ZM769.706667 601.6m-106.666667 0a106.666667 106.666667 0 1 1 213.333333 0 106.666667 106.666667 0 1 1-213.333333 0Z"  horiz-adv-x="1024" />

    


  </font>
</defs>
</svg>
